TITLE ""
FILE "2Q_t_1201-1217.mp3" MP3
  TRACK 01 AUDIO
    TITLE "2Q_t_1201-1217_01"
    INDEX 01 00:00:00
  TRACK 02 AUDIO
    TITLE "2Q_t_1201-1217_02"
    INDEX 01 00:00:20
  TRACK 03 AUDIO
    TITLE "2Q_t_1201-1217_03"
    INDEX 01 00:01:69
  TRACK 04 AUDIO
    TITLE "2Q_t_1201-1217_04"
    INDEX 01 00:02:44
  TRACK 05 AUDIO
    TITLE "2Q_t_1201-1217_05"
    INDEX 01 00:03:50
  TRACK 06 AUDIO
    TITLE "2Q_t_1201-1217_06"
    INDEX 01 00:04:20
  TRACK 07 AUDIO
    TITLE "2Q_t_1201-1217_07"
    INDEX 01 00:05:27
  TRACK 08 AUDIO
    TITLE "2Q_t_1201-1217_08"
    INDEX 01 00:06:11
  TRACK 09 AUDIO
    TITLE "2Q_t_1201-1217_09"
    INDEX 01 00:08:67
  TRACK 10 AUDIO
    TITLE "2Q_t_1201-1217_10"
    INDEX 01 00:09:37
  TRACK 11 AUDIO
    TITLE "2Q_t_1201-1217_11"
    INDEX 01 00:10:42
  TRACK 12 AUDIO
    TITLE "2Q_t_1201-1217_12"
    INDEX 01 00:11:28
  TRACK 13 AUDIO
    TITLE "2Q_t_1201-1217_13"
    INDEX 01 00:12:53
  TRACK 14 AUDIO
    TITLE "2Q_t_1201-1217_14"
    INDEX 01 00:13:25
  TRACK 15 AUDIO
    TITLE "2Q_t_1201-1217_15"
    INDEX 01 00:14:24
  TRACK 16 AUDIO
    TITLE "2Q_t_1201-1217_16"
    INDEX 01 00:15:10
  TRACK 17 AUDIO
    TITLE "2Q_t_1201-1217_17"
    INDEX 01 00:16:09
  TRACK 18 AUDIO
    TITLE "2Q_t_1201-1217_18"
    INDEX 01 00:16:54
  TRACK 19 AUDIO
    TITLE "2Q_t_1201-1217_19"
    INDEX 01 00:17:64
  TRACK 20 AUDIO
    TITLE "2Q_t_1201-1217_20"
    INDEX 01 00:18:45
  TRACK 21 AUDIO
    TITLE "2Q_t_1201-1217_21"
    INDEX 01 00:21:01
  TRACK 22 AUDIO
    TITLE "2Q_t_1201-1217_22"
    INDEX 01 00:21:46
  TRACK 23 AUDIO
    TITLE "2Q_t_1201-1217_23"
    INDEX 01 00:22:51
  TRACK 24 AUDIO
    TITLE "2Q_t_1201-1217_24"
    INDEX 01 00:23:27
  TRACK 25 AUDIO
    TITLE "2Q_t_1201-1217_25"
    INDEX 01 00:24:56
  TRACK 26 AUDIO
    TITLE "2Q_t_1201-1217_26"
    INDEX 01 00:25:26
  TRACK 27 AUDIO
    TITLE "2Q_t_1201-1217_27"
    INDEX 01 00:26:27
  TRACK 28 AUDIO
    TITLE "2Q_t_1201-1217_28"
    INDEX 01 00:27:11
  TRACK 29 AUDIO
    TITLE "2Q_t_1201-1217_29"
    INDEX 01 00:29:49
  TRACK 30 AUDIO
    TITLE "2Q_t_1201-1217_30"
    INDEX 01 00:30:19
  TRACK 31 AUDIO
    TITLE "2Q_t_1201-1217_31"
    INDEX 01 00:31:28
  TRACK 32 AUDIO
    TITLE "2Q_t_1201-1217_32"
    INDEX 01 00:32:01
  TRACK 33 AUDIO
    TITLE "2Q_t_1201-1217_33"
    INDEX 01 00:33:22
  TRACK 34 AUDIO
    TITLE "2Q_t_1201-1217_34"
    INDEX 01 00:33:67
  TRACK 35 AUDIO
    TITLE "2Q_t_1201-1217_35"
    INDEX 01 00:35:09
  TRACK 36 AUDIO
    TITLE "2Q_t_1201-1217_36"
    INDEX 01 00:35:56
  TRACK 37 AUDIO
    TITLE "2Q_t_1201-1217_37"
    INDEX 01 00:37:09
  TRACK 38 AUDIO
    TITLE "2Q_t_1201-1217_38"
    INDEX 01 00:37:57
  TRACK 39 AUDIO
    TITLE "2Q_t_1201-1217_39"
    INDEX 01 00:38:40
  TRACK 40 AUDIO
    TITLE "2Q_t_1201-1217_40"
    INDEX 01 00:39:24
  TRACK 41 AUDIO
    TITLE "2Q_t_1201-1217_41"
    INDEX 01 00:41:50
  TRACK 42 AUDIO
    TITLE "2Q_t_1201-1217_42"
    INDEX 01 00:42:22
  TRACK 43 AUDIO
    TITLE "2Q_t_1201-1217_43"
    INDEX 01 00:43:40
  TRACK 44 AUDIO
    TITLE "2Q_t_1201-1217_44"
    INDEX 01 00:44:21
  TRACK 45 AUDIO
    TITLE "2Q_t_1201-1217_45"
    INDEX 01 00:45:52
  TRACK 46 AUDIO
    TITLE "2Q_t_1201-1217_46"
    INDEX 01 00:46:22
  TRACK 47 AUDIO
    TITLE "2Q_t_1201-1217_47"
    INDEX 01 00:47:27
  TRACK 48 AUDIO
    TITLE "2Q_t_1201-1217_48"
    INDEX 01 00:48:03
  TRACK 49 AUDIO
    TITLE "2Q_t_1201-1217_49"
    INDEX 01 00:49:09
  TRACK 50 AUDIO
    TITLE "2Q_t_1201-1217_50"
    INDEX 01 00:49:56
  TRACK 51 AUDIO
    TITLE "2Q_t_1201-1217_51"
    INDEX 01 00:51:00
  TRACK 52 AUDIO
    TITLE "2Q_t_1201-1217_52"
    INDEX 01 00:51:51
  TRACK 53 AUDIO
    TITLE "2Q_t_1201-1217_53"
    INDEX 01 00:54:55
  TRACK 54 AUDIO
    TITLE "2Q_t_1201-1217_54"
    INDEX 01 00:55:25
  TRACK 55 AUDIO
    TITLE "2Q_t_1201-1217_55"
    INDEX 01 00:56:44
  TRACK 56 AUDIO
    TITLE "2Q_t_1201-1217_56"
    INDEX 01 00:57:18
  TRACK 57 AUDIO
    TITLE "2Q_t_1201-1217_57"
    INDEX 01 00:58:55
  TRACK 58 AUDIO
    TITLE "2Q_t_1201-1217_58"
    INDEX 01 00:59:27
  TRACK 59 AUDIO
    TITLE "2Q_t_1201-1217_59"
    INDEX 01 01:00:28
  TRACK 60 AUDIO
    TITLE "2Q_t_1201-1217_60"
    INDEX 01 01:01:06
  TRACK 61 AUDIO
    TITLE "2Q_t_1201-1217_61"
    INDEX 01 01:02:47
  TRACK 62 AUDIO
    TITLE "2Q_t_1201-1217_62"
    INDEX 01 01:03:19
  TRACK 63 AUDIO
    TITLE "2Q_t_1201-1217_63"
    INDEX 01 01:04:44
  TRACK 64 AUDIO
    TITLE "2Q_t_1201-1217_64"
    INDEX 01 01:05:22
  TRACK 65 AUDIO
    TITLE "2Q_t_1201-1217_65"
    INDEX 01 01:07:69
  TRACK 66 AUDIO
    TITLE "2Q_t_1201-1217_66"
    INDEX 01 01:08:41
  TRACK 67 AUDIO
    TITLE "2Q_t_1201-1217_67"
    INDEX 01 01:09:37
  TRACK 68 AUDIO
    TITLE "2Q_t_1201-1217_68"
    INDEX 01 01:10:11
  TRACK 69 AUDIO
    TITLE "2Q_t_1201-1217_69"
    INDEX 01 01:11:40
  TRACK 70 AUDIO
    TITLE "2Q_t_1201-1217_70"
    INDEX 01 01:12:10
  TRACK 71 AUDIO
    TITLE "2Q_t_1201-1217_71"
    INDEX 01 01:13:19
  TRACK 72 AUDIO
    TITLE "2Q_t_1201-1217_72"
    INDEX 01 01:13:74
  TRACK 73 AUDIO
    TITLE "2Q_t_1201-1217_73"
    INDEX 01 01:15:34
